<?xml version="1.0" encoding="utf-8" ?>
<svg baseProfile="full" height="900" version="1.1" width="1440" xmlns="http://www.w3.org/2000/svg" xmlns:ev="http://www.w3.org/2001/xml-events" xmlns:xlink="http://www.w3.org/1999/xlink"><defs /><g id="tree_builder"><rect fill="#F5F5F5" height="900" rx="0" ry="0" width="280" x="0" y="0" /><text fill="#1976D2" style="font-family: Arial, sans-serif; font-size: 18px; font-weight: bold" text-anchor="middle" x="140" y="40">Clinical Quiz</text><text fill="#9E9E9E" style="font-family: Arial, sans-serif; font-size: 12px; font-weight: normal" text-anchor="middle" x="140" y="60">Tree Builder</text><text fill="#212121" style="font-family: Arial, sans-serif; font-size: 14px; font-weight: normal" text-anchor="middle" x="140" y="130">Dashboard</text><rect fill="#1976D2" height="45" rx="8" ry="8" width="250" x="15" y="155" /><text fill="#FFFFFF" style="font-family: Arial, sans-serif; font-size: 14px; font-weight: bold" text-anchor="middle" x="140" y="180">I Miei Alberi</text><text fill="#9E9E9E" style="font-family: Arial, sans-serif; font-size: 12px; font-weight: normal" text-anchor="start" x="20" y="230">Quiz Albero</text><rect fill="#E3F2FD" height="40" rx="6" ry="6" stroke="#BDBDBD" stroke-width="1" width="250" x="15" y="260" /><text fill="#212121" style="font-family: Arial, sans-serif; font-size: 12px; font-weight: normal" text-anchor="start" x="30" y="285">Diagnosi Cardiaca</text><rect fill="#FFFFFF" height="40" rx="6" ry="6" stroke="#BDBDBD" stroke-width="1" width="250" x="15" y="305" /><text fill="#212121" style="font-family: Arial, sans-serif; font-size: 12px; font-weight: normal" text-anchor="start" x="30" y="330">Triage Emergenza</text><rect fill="#FFFFFF" height="40" rx="6" ry="6" stroke="#BDBDBD" stroke-width="1" width="250" x="15" y="350" /><text fill="#212121" style="font-family: Arial, sans-serif; font-size: 12px; font-weight: normal" text-anchor="start" x="30" y="375">Farmacologia Base</text><rect fill="#FFFFFF" height="900" rx="0" ry="0" width="1160" x="280" y="0" /><text fill="#212121" style="font-family: Arial, sans-serif; font-size: 20px; font-weight: bold" text-anchor="start" x="310" y="45">Costruttore Albero: Diagnosi Cardiaca</text><text fill="#9E9E9E" style="font-family: Arial, sans-serif; font-size: 12px; font-weight: normal" text-anchor="start" x="310" y="70">Trascina i nodi per costruire il percorso decisionale</text><g id="toolbar"><rect fill="#E0E0E0" height="50" rx="8" ry="8" width="1100" x="310" y="90" /><rect fill="#1976D2" height="30" rx="4" ry="4" width="130" x="330" y="100" /><text fill="#FFFFFF" style="font-family: Arial, sans-serif; font-size: 11px; font-weight: normal" text-anchor="middle" x="395" y="120">+ Domanda</text><rect fill="#757575" height="30" rx="4" ry="4" width="130" x="480" y="100" /><text fill="#FFFFFF" style="font-family: Arial, sans-serif; font-size: 11px; font-weight: normal" text-anchor="middle" x="545" y="120">+ Convergenza</text><rect fill="#9C27B0" height="30" rx="4" ry="4" width="130" x="630" y="100" /><text fill="#FFFFFF" style="font-family: Arial, sans-serif; font-size: 11px; font-weight: normal" text-anchor="middle" x="695" y="120">+ Fine</text><rect fill="#9E9E9E" height="30" rx="4" ry="4" width="130" x="780" y="100" /><text fill="#FFFFFF" style="font-family: Arial, sans-serif; font-size: 11px; font-weight: normal" text-anchor="middle" x="845" y="120">Collega</text><rect fill="#F44336" height="30" rx="4" ry="4" width="130" x="930" y="100" /><text fill="#FFFFFF" style="font-family: Arial, sans-serif; font-size: 11px; font-weight: normal" text-anchor="middle" x="995" y="120">Elimina</text><g id="button_SALVA"><rect fill="#4CAF50" height="35" rx="6" ry="6" width="120" x="1120" y="98" /><text fill="#FFFFFF" style="font-family: Arial, sans-serif; font-size: 12px; font-weight: bold" text-anchor="middle" x="1180.0" y="120.5">SALVA</text></g><g id="button_ANTEPRIMA"><rect fill="#FF9800" height="35" rx="6" ry="6" width="120" x="1260" y="98" /><text fill="#FFFFFF" style="font-family: Arial, sans-serif; font-size: 12px; font-weight: bold" text-anchor="middle" x="1320.0" y="120.5">ANTEPRIMA</text></g></g><g id="canvas_root"><rect fill="#1976D2" height="60" rx="8" ry="8" width="180" x="600" y="180" /><text fill="#FFFFFF" style="font-family: Arial, sans-serif; font-size: 12px; font-weight: bold" text-anchor="middle" x="690" y="205">START</text><text fill="#FFFFFF" style="font-family: Arial, sans-serif; font-size: 10px; font-weight: normal" text-anchor="middle" x="690" y="225">Dolore toracico?</text></g><g id="canvas_l2a"><rect fill="#4CAF50" height="55" rx="8" ry="8" width="160" x="420" y="290" /><text fill="#FFFFFF" style="font-family: Arial, sans-serif; font-size: 10px; font-weight: bold" text-anchor="middle" x="500" y="312">Sì - ECG anormale?</text></g><g id="canvas_l2b"><rect fill="#FF9800" height="55" rx="8" ry="8" width="160" x="780" y="290" /><text fill="#FFFFFF" style="font-family: Arial, sans-serif; font-size: 10px; font-weight: bold" text-anchor="middle" x="860" y="312">No - Altri sintomi?</text></g><line stroke="#4CAF50" stroke-width="2" x1="650" x2="500" y1="240" y2="290" /><line stroke="#FF9800" stroke-width="2" x1="730" x2="860" y1="240" y2="290" /><g id="canvas_l3a"><rect fill="#4CAF50" height="50" rx="8" ry="8" width="140" x="340" y="400" /><text fill="#FFFFFF" style="font-family: Arial, sans-serif; font-size: 10px; font-weight: normal" text-anchor="middle" x="410" y="430">STEMI?</text></g><g id="canvas_l3b"><rect fill="#F44336" height="50" rx="8" ry="8" width="140" x="520" y="400" /><text fill="#FFFFFF" style="font-family: Arial, sans-serif; font-size: 10px; font-weight: normal" text-anchor="middle" x="590" y="430">Enzimi cardiaci</text></g><line stroke="#4CAF50" stroke-width="2" x1="450" x2="410" y1="345" y2="400" /><line stroke="#F44336" stroke-width="2" x1="550" x2="590" y1="345" y2="400" /><g id="canvas_end"><rect fill="#9C27B0" height="45" rx="20" ry="20" width="120" x="380" y="510" /><text fill="#FFFFFF" style="font-family: Arial, sans-serif; font-size: 10px; font-weight: bold" text-anchor="middle" x="440" y="538">Diagnosi A</text></g><line stroke="#9C27B0" stroke-width="2" x1="410" x2="430" y1="450" y2="510" /><g id="canvas"><rect fill="#FAFAFA" height="580" rx="8" ry="8" stroke="#BDBDBD" stroke-width="1" width="780" x="310" y="160" /><circle cx="340" cy="190" fill="#E0E0E0" r="2" /><circle cx="340" cy="242" fill="#E0E0E0" r="2" /><circle cx="340" cy="294" fill="#E0E0E0" r="2" /><circle cx="340" cy="346" fill="#E0E0E0" r="2" /><circle cx="340" cy="398" fill="#E0E0E0" r="2" /><circle cx="340" cy="450" fill="#E0E0E0" r="2" /><circle cx="340" cy="502" fill="#E0E0E0" r="2" /><circle cx="340" cy="554" fill="#E0E0E0" r="2" /><circle cx="340" cy="606" fill="#E0E0E0" r="2" /><circle cx="340" cy="658" fill="#E0E0E0" r="2" /><circle cx="340" cy="710" fill="#E0E0E0" r="2" /><circle cx="392" cy="190" fill="#E0E0E0" r="2" /><circle cx="392" cy="242" fill="#E0E0E0" r="2" /><circle cx="392" cy="294" fill="#E0E0E0" r="2" /><circle cx="392" cy="346" fill="#E0E0E0" r="2" /><circle cx="392" cy="398" fill="#E0E0E0" r="2" /><circle cx="392" cy="450" fill="#E0E0E0" r="2" /><circle cx="392" cy="502" fill="#E0E0E0" r="2" /><circle cx="392" cy="554" fill="#E0E0E0" r="2" /><circle cx="392" cy="606" fill="#E0E0E0" r="2" /><circle cx="392" cy="658" fill="#E0E0E0" r="2" /><circle cx="392" cy="710" fill="#E0E0E0" r="2" /><circle cx="444" cy="190" fill="#E0E0E0" r="2" /><circle cx="444" cy="242" fill="#E0E0E0" r="2" /><circle cx="444" cy="294" fill="#E0E0E0" r="2" /><circle cx="444" cy="346" fill="#E0E0E0" r="2" /><circle cx="444" cy="398" fill="#E0E0E0" r="2" /><circle cx="444" cy="450" fill="#E0E0E0" r="2" /><circle cx="444" cy="502" fill="#E0E0E0" r="2" /><circle cx="444" cy="554" fill="#E0E0E0" r="2" /><circle cx="444" cy="606" fill="#E0E0E0" r="2" /><circle cx="444" cy="658" fill="#E0E0E0" r="2" /><circle cx="444" cy="710" fill="#E0E0E0" r="2" /><circle cx="496" cy="190" fill="#E0E0E0" r="2" /><circle cx="496" cy="242" fill="#E0E0E0" r="2" /><circle cx="496" cy="294" fill="#E0E0E0" r="2" /><circle cx="496" cy="346" fill="#E0E0E0" r="2" /><circle cx="496" cy="398" fill="#E0E0E0" r="2" /><circle cx="496" cy="450" fill="#E0E0E0" r="2" /><circle cx="496" cy="502" fill="#E0E0E0" r="2" /><circle cx="496" cy="554" fill="#E0E0E0" r="2" /><circle cx="496" cy="606" fill="#E0E0E0" r="2" /><circle cx="496" cy="658" fill="#E0E0E0" r="2" /><circle cx="496" cy="710" fill="#E0E0E0" r="2" /><circle cx="548" cy="190" fill="#E0E0E0" r="2" /><circle cx="548" cy="242" fill="#E0E0E0" r="2" /><circle cx="548" cy="294" fill="#E0E0E0" r="2" /><circle cx="548" cy="346" fill="#E0E0E0" r="2" /><circle cx="548" cy="398" fill="#E0E0E0" r="2" /><circle cx="548" cy="450" fill="#E0E0E0" r="2" /><circle cx="548" cy="502" fill="#E0E0E0" r="2" /><circle cx="548" cy="554" fill="#E0E0E0" r="2" /><circle cx="548" cy="606" fill="#E0E0E0" r="2" /><circle cx="548" cy="658" fill="#E0E0E0" r="2" /><circle cx="548" cy="710" fill="#E0E0E0" r="2" /><circle cx="600" cy="190" fill="#E0E0E0" r="2" /><circle cx="600" cy="242" fill="#E0E0E0" r="2" /><circle cx="600" cy="294" fill="#E0E0E0" r="2" /><circle cx="600" cy="346" fill="#E0E0E0" r="2" /><circle cx="600" cy="398" fill="#E0E0E0" r="2" /><circle cx="600" cy="450" fill="#E0E0E0" r="2" /><circle cx="600" cy="502" fill="#E0E0E0" r="2" /><circle cx="600" cy="554" fill="#E0E0E0" r="2" /><circle cx="600" cy="606" fill="#E0E0E0" r="2" /><circle cx="600" cy="658" fill="#E0E0E0" r="2" /><circle cx="600" cy="710" fill="#E0E0E0" r="2" /><circle cx="652" cy="190" fill="#E0E0E0" r="2" /><circle cx="652" cy="242" fill="#E0E0E0" r="2" /><circle cx="652" cy="294" fill="#E0E0E0" r="2" /><circle cx="652" cy="346" fill="#E0E0E0" r="2" /><circle cx="652" cy="398" fill="#E0E0E0" r="2" /><circle cx="652" cy="450" fill="#E0E0E0" r="2" /><circle cx="652" cy="502" fill="#E0E0E0" r="2" /><circle cx="652" cy="554" fill="#E0E0E0" r="2" /><circle cx="652" cy="606" fill="#E0E0E0" r="2" /><circle cx="652" cy="658" fill="#E0E0E0" r="2" /><circle cx="652" cy="710" fill="#E0E0E0" r="2" /><circle cx="704" cy="190" fill="#E0E0E0" r="2" /><circle cx="704" cy="242" fill="#E0E0E0" r="2" /><circle cx="704" cy="294" fill="#E0E0E0" r="2" /><circle cx="704" cy="346" fill="#E0E0E0" r="2" /><circle cx="704" cy="398" fill="#E0E0E0" r="2" /><circle cx="704" cy="450" fill="#E0E0E0" r="2" /><circle cx="704" cy="502" fill="#E0E0E0" r="2" /><circle cx="704" cy="554" fill="#E0E0E0" r="2" /><circle cx="704" cy="606" fill="#E0E0E0" r="2" /><circle cx="704" cy="658" fill="#E0E0E0" r="2" /><circle cx="704" cy="710" fill="#E0E0E0" r="2" /><circle cx="756" cy="190" fill="#E0E0E0" r="2" /><circle cx="756" cy="242" fill="#E0E0E0" r="2" /><circle cx="756" cy="294" fill="#E0E0E0" r="2" /><circle cx="756" cy="346" fill="#E0E0E0" r="2" /><circle cx="756" cy="398" fill="#E0E0E0" r="2" /><circle cx="756" cy="450" fill="#E0E0E0" r="2" /><circle cx="756" cy="502" fill="#E0E0E0" r="2" /><circle cx="756" cy="554" fill="#E0E0E0" r="2" /><circle cx="756" cy="606" fill="#E0E0E0" r="2" /><circle cx="756" cy="658" fill="#E0E0E0" r="2" /><circle cx="756" cy="710" fill="#E0E0E0" r="2" /><circle cx="808" cy="190" fill="#E0E0E0" r="2" /><circle cx="808" cy="242" fill="#E0E0E0" r="2" /><circle cx="808" cy="294" fill="#E0E0E0" r="2" /><circle cx="808" cy="346" fill="#E0E0E0" r="2" /><circle cx="808" cy="398" fill="#E0E0E0" r="2" /><circle cx="808" cy="450" fill="#E0E0E0" r="2" /><circle cx="808" cy="502" fill="#E0E0E0" r="2" /><circle cx="808" cy="554" fill="#E0E0E0" r="2" /><circle cx="808" cy="606" fill="#E0E0E0" r="2" /><circle cx="808" cy="658" fill="#E0E0E0" r="2" /><circle cx="808" cy="710" fill="#E0E0E0" r="2" /><circle cx="860" cy="190" fill="#E0E0E0" r="2" /><circle cx="860" cy="242" fill="#E0E0E0" r="2" /><circle cx="860" cy="294" fill="#E0E0E0" r="2" /><circle cx="860" cy="346" fill="#E0E0E0" r="2" /><circle cx="860" cy="398" fill="#E0E0E0" r="2" /><circle cx="860" cy="450" fill="#E0E0E0" r="2" /><circle cx="860" cy="502" fill="#E0E0E0" r="2" /><circle cx="860" cy="554" fill="#E0E0E0" r="2" /><circle cx="860" cy="606" fill="#E0E0E0" r="2" /><circle cx="860" cy="658" fill="#E0E0E0" r="2" /><circle cx="860" cy="710" fill="#E0E0E0" r="2" /><circle cx="912" cy="190" fill="#E0E0E0" r="2" /><circle cx="912" cy="242" fill="#E0E0E0" r="2" /><circle cx="912" cy="294" fill="#E0E0E0" r="2" /><circle cx="912" cy="346" fill="#E0E0E0" r="2" /><circle cx="912" cy="398" fill="#E0E0E0" r="2" /><circle cx="912" cy="450" fill="#E0E0E0" r="2" /><circle cx="912" cy="502" fill="#E0E0E0" r="2" /><circle cx="912" cy="554" fill="#E0E0E0" r="2" /><circle cx="912" cy="606" fill="#E0E0E0" r="2" /><circle cx="912" cy="658" fill="#E0E0E0" r="2" /><circle cx="912" cy="710" fill="#E0E0E0" r="2" /><circle cx="964" cy="190" fill="#E0E0E0" r="2" /><circle cx="964" cy="242" fill="#E0E0E0" r="2" /><circle cx="964" cy="294" fill="#E0E0E0" r="2" /><circle cx="964" cy="346" fill="#E0E0E0" r="2" /><circle cx="964" cy="398" fill="#E0E0E0" r="2" /><circle cx="964" cy="450" fill="#E0E0E0" r="2" /><circle cx="964" cy="502" fill="#E0E0E0" r="2" /><circle cx="964" cy="554" fill="#E0E0E0" r="2" /><circle cx="964" cy="606" fill="#E0E0E0" r="2" /><circle cx="964" cy="658" fill="#E0E0E0" r="2" /><circle cx="964" cy="710" fill="#E0E0E0" r="2" /><circle cx="1016" cy="190" fill="#E0E0E0" r="2" /><circle cx="1016" cy="242" fill="#E0E0E0" r="2" /><circle cx="1016" cy="294" fill="#E0E0E0" r="2" /><circle cx="1016" cy="346" fill="#E0E0E0" r="2" /><circle cx="1016" cy="398" fill="#E0E0E0" r="2" /><circle cx="1016" cy="450" fill="#E0E0E0" r="2" /><circle cx="1016" cy="502" fill="#E0E0E0" r="2" /><circle cx="1016" cy="554" fill="#E0E0E0" r="2" /><circle cx="1016" cy="606" fill="#E0E0E0" r="2" /><circle cx="1016" cy="658" fill="#E0E0E0" r="2" /><circle cx="1016" cy="710" fill="#E0E0E0" r="2" /><circle cx="1068" cy="190" fill="#E0E0E0" r="2" /><circle cx="1068" cy="242" fill="#E0E0E0" r="2" /><circle cx="1068" cy="294" fill="#E0E0E0" r="2" /><circle cx="1068" cy="346" fill="#E0E0E0" r="2" /><circle cx="1068" cy="398" fill="#E0E0E0" r="2" /><circle cx="1068" cy="450" fill="#E0E0E0" r="2" /><circle cx="1068" cy="502" fill="#E0E0E0" r="2" /><circle cx="1068" cy="554" fill="#E0E0E0" r="2" /><circle cx="1068" cy="606" fill="#E0E0E0" r="2" /><circle cx="1068" cy="658" fill="#E0E0E0" r="2" /><circle cx="1068" cy="710" fill="#E0E0E0" r="2" /></g><g id="resp1"><rect fill="#E8F5E9" height="50" rx="4" ry="4" stroke="#4CAF50" stroke-width="1" width="240" x="1130" y="485" /><text fill="#212121" style="font-family: Arial, sans-serif; font-size: 11px; font-weight: bold" text-anchor="start" x="1145" y="505">Sì</text><text fill="#4CAF50" style="font-family: Arial, sans-serif; font-size: 9px; font-weight: normal" text-anchor="start" x="1145" y="522">→ ECG anormale?</text></g><g id="resp2"><rect fill="#FFF3E0" height="50" rx="4" ry="4" stroke="#FF9800" stroke-width="1" width="240" x="1130" y="545" /><text fill="#212121" style="font-family: Arial, sans-serif; font-size: 11px; font-weight: bold" text-anchor="start" x="1145" y="565">No</text><text fill="#FF9800" style="font-family: Arial, sans-serif; font-size: 9px; font-weight: normal" text-anchor="start" x="1145" y="582">→ Altri sintomi?</text></g><g id="properties"><rect fill="#FFFFFF" height="580" rx="8" ry="8" stroke="#BDBDBD" stroke-width="1" width="280" x="1110" y="160" /><text fill="#212121" style="font-family: Arial, sans-serif; font-size: 14px; font-weight: bold" text-anchor="middle" x="1250" y="195">Proprietà Nodo</text><text fill="#9E9E9E" style="font-family: Arial, sans-serif; font-size: 11px; font-weight: normal" text-anchor="start" x="1130" y="230">Nodo selezionato:</text><rect fill="#1976D2" height="35" rx="4" ry="4" width="240" x="1130" y="245" /><text fill="#FFFFFF" style="font-family: Arial, sans-serif; font-size: 10px; font-weight: normal" text-anchor="middle" x="1250" y="268">START - Dolore toracico?</text><text fill="#9E9E9E" style="font-family: Arial, sans-serif; font-size: 11px; font-weight: normal" text-anchor="start" x="1130" y="310">Testo domanda:</text><g id="input_"><rect fill="#F5F5F5" height="40" rx="4" ry="4" stroke="#BDBDBD" stroke-width="1" width="240" x="1130" y="325" /><text fill="#9E9E9E" style="font-family: Arial, sans-serif; font-size: 12px; font-weight: normal" text-anchor="start" x="1142" y="349.0">Il paziente presenta dolore toracico?</text></g><text fill="#9E9E9E" style="font-family: Arial, sans-serif; font-size: 11px; font-weight: normal" text-anchor="start" x="1130" y="390">Tipo nodo:</text><rect fill="#FFFFFF" height="35" rx="4" ry="4" stroke="#BDBDBD" stroke-width="1" width="240" x="1130" y="405" /><text fill="#212121" style="font-family: Arial, sans-serif; font-size: 11px; font-weight: normal" text-anchor="start" x="1140" y="428">Domanda a scelta</text><text fill="#9E9E9E" style="font-family: Arial, sans-serif; font-size: 11px; font-weight: normal" text-anchor="start" x="1130" y="465">Risposte:</text><text fill="#9E9E9E" style="font-family: Arial, sans-serif; font-size: 11px; font-weight: normal" text-anchor="start" x="1130" y="620">Punti base:</text><g id="input_"><rect fill="#F5F5F5" height="35" rx="4" ry="4" stroke="#BDBDBD" stroke-width="1" width="100" x="1130" y="635" /><text fill="#9E9E9E" style="font-family: Arial, sans-serif; font-size: 12px; font-weight: normal" text-anchor="start" x="1142" y="656.5">10</text></g><text fill="#9E9E9E" style="font-family: Arial, sans-serif; font-size: 11px; font-weight: normal" text-anchor="start" x="1250" y="620">Bonus:</text><g id="input_"><rect fill="#F5F5F5" height="35" rx="4" ry="4" stroke="#BDBDBD" stroke-width="1" width="100" x="1250" y="635" /><text fill="#9E9E9E" style="font-family: Arial, sans-serif; font-size: 12px; font-weight: normal" text-anchor="start" x="1262" y="656.5">+5</text></g><g id="button_APPLICA_MODIFICHE"><rect fill="#1976D2" height="35" rx="6" ry="6" width="240" x="1130" y="695" /><text fill="#FFFFFF" style="font-family: Arial, sans-serif; font-size: 12px; font-weight: bold" text-anchor="middle" x="1250.0" y="717.5">APPLICA MODIFICHE</text></g></g><g id="stats"><rect fill="#E0E0E0" height="60" rx="8" ry="8" width="1080" x="310" y="760" /><text fill="#9E9E9E" style="font-family: Arial, sans-serif; font-size: 10px; font-weight: normal" text-anchor="middle" x="380" y="785">Nodi totali</text><text fill="#1976D2" style="font-family: Arial, sans-serif; font-size: 18px; font-weight: bold" text-anchor="middle" x="380" y="808">12</text><text fill="#9E9E9E" style="font-family: Arial, sans-serif; font-size: 10px; font-weight: normal" text-anchor="middle" x="580" y="785">Domande</text><text fill="#1976D2" style="font-family: Arial, sans-serif; font-size: 18px; font-weight: bold" text-anchor="middle" x="580" y="808">8</text><text fill="#9E9E9E" style="font-family: Arial, sans-serif; font-size: 10px; font-weight: normal" text-anchor="middle" x="780" y="785">Convergenze</text><text fill="#1976D2" style="font-family: Arial, sans-serif; font-size: 18px; font-weight: bold" text-anchor="middle" x="780" y="808">2</text><text fill="#9E9E9E" style="font-family: Arial, sans-serif; font-size: 10px; font-weight: normal" text-anchor="middle" x="980" y="785">Endpoint</text><text fill="#1976D2" style="font-family: Arial, sans-serif; font-size: 18px; font-weight: bold" text-anchor="middle" x="980" y="808">4</text><text fill="#9E9E9E" style="font-family: Arial, sans-serif; font-size: 10px; font-weight: normal" text-anchor="middle" x="1180" y="785">Profondità max</text><text fill="#1976D2" style="font-family: Arial, sans-serif; font-size: 18px; font-weight: bold" text-anchor="middle" x="1180" y="808">5</text></g><text fill="#212121" style="font-family: Arial, sans-serif; font-size: 10px; font-weight: bold" text-anchor="middle" x="860" y="880">WIREFRAME: TREE BUILDER - CREATOR</text></g></svg>